<svg id="Capa_1" enable-background="new 0 0 511.77 511.77" height="512" viewBox="0 0 511.77 511.77" width="512" xmlns="http://www.w3.org/2000/svg"><g><g><g><path d="m386.744 132.365c-25.267 1.038-74.518-.807-120.492-24.826-63.889-33.379-96.039-96.095-97.377-98.748-.731-1.45-.718-3.176.034-4.615.753-1.441 2.162-2.437 3.77-2.665.64-.091 6.512-.898 16.183-1.295 25.267-1.038 74.519.807 120.491 24.825 63.904 33.386 96.039 96.094 97.376 98.748.731 1.451.719 3.178-.034 4.618-.752 1.439-2.161 2.435-3.769 2.663-.639.091-6.524.899-16.182 1.295z" fill="#008932"/><path d="m188.861.216c-9.671.397-15.542 1.204-16.182 1.295-1.608.228-3.017 1.224-3.77 2.665l237.786 124.23c.752-1.44.764-3.167.034-4.618-1.337-2.653-33.473-65.361-97.376-98.748-45.973-24.016-95.225-25.861-120.492-24.824z" fill="#006522"/></g><g><path d="m388.774 142.33c-21.921 12.608-66.44 33.755-118.31 33.726-72.082-.04-129.597-40.771-132.01-42.505-1.319-.948-2.106-2.483-2.104-4.107.001-1.626.789-3.161 2.109-4.107.525-.377 5.358-3.808 13.748-8.634 21.921-12.608 66.441-33.755 118.308-33.726 72.1.04 129.597 40.771 132.01 42.505 1.319.948 2.107 2.485 2.106 4.11-.001 1.624-.79 3.159-2.109 4.104-.525.377-5.369 3.815-13.748 8.634z" fill="#008932"/><path d="m152.206 116.704c-8.39 4.826-13.222 8.257-13.748 8.634-1.32.946-2.109 2.481-2.109 4.107l268.282.148c.001-1.625-.787-3.161-2.106-4.11-2.413-1.734-59.911-42.465-132.01-42.505-51.868-.029-96.387 21.118-118.309 33.726z" fill="#006522"/></g></g><g><g><path d="m426.852 133.602c-2.159-8.094-10.471-12.904-18.564-10.746-46.008 12.272-90.926 41.554-129.898 84.682-29.159 32.268-44.789 60.805-45.441 62.004-3.994 7.356-1.27 16.551 6.082 20.553 2.301 1.253 4.784 1.847 7.233 1.847 5.374 0 10.582-2.863 13.336-7.911.31-.568 17.268-31.122 48.089-63.301-1.941 41.889 2.288 70.731 2.524 72.291 1.135 7.515 7.599 12.899 14.976 12.899.749 0 1.508-.056 2.271-.17 8.279-1.242 13.985-8.963 12.75-17.243-.065-.439-6.16-42.505.341-97.546 21.448-16.641 46.78-31.12 75.555-38.795 8.094-2.159 12.905-10.47 10.746-18.564z" fill="#c97340"/><path d="m426.852 133.602c-2.159-8.094-10.471-12.904-18.564-10.746-28.495 7.601-56.571 21.733-83.076 41.633v141.431c.741-.001 1.493-.056 2.249-.17 8.279-1.242 13.985-8.963 12.75-17.243-.065-.439-6.16-42.505.341-97.546 21.448-16.641 46.78-31.12 75.555-38.795 8.093-2.159 12.904-10.47 10.745-18.564z" fill="#964c22"/></g><g><g><path d="m127.348 463.062c-9.28-5.989-17.459-14.118-24.309-24.162-13.303-19.509-19.698-42.605-18.494-66.795 1.097-22.053 8.36-44.065 21.003-63.656s29.708-35.277 49.35-45.362c21.546-11.062 45.227-14.75 68.482-10.665 11.974 2.103 22.75 6.206 32.031 12.196 9.282 5.99 17.46 14.119 24.309 24.162 13.303 19.507 19.698 42.604 18.494 66.794-1.097 22.053-8.359 44.065-21.002 63.656s-29.708 35.278-49.351 45.362c-21.545 11.063-45.226 14.751-68.482 10.666-11.974-2.104-22.75-6.207-32.031-12.196z" fill="#d2d02c"/><path d="m298.214 355.572c1.203-24.19-5.191-47.287-18.494-66.794-6.848-10.043-15.027-18.172-24.309-24.162l-128.063 198.446c9.28 5.989 20.057 10.092 32.03 12.195 23.256 4.085 46.937.397 68.482-10.666 19.644-10.085 36.708-25.771 49.351-45.362 12.644-19.591 19.906-41.604 21.003-63.657z" fill="#b5b424"/></g><g><path d="m325.212 511.77c-11.045 0-22.325-2.396-33.526-7.121-21.756-9.178-39.653-25.118-51.758-46.095-11.036-19.125-16.869-41.558-16.869-64.874s5.833-45.75 16.869-64.874c12.105-20.978 30.003-36.917 51.758-46.094 11.201-4.725 22.481-7.121 33.526-7.121 11.047 0 22.327 2.396 33.526 7.121 21.755 9.177 39.652 25.117 51.757 46.094 11.036 19.124 16.87 41.557 16.87 64.874s-5.833 45.75-16.87 64.874c-12.104 20.978-30.002 36.917-51.758 46.095-11.201 4.726-22.48 7.121-33.525 7.121z" fill="#d2d02c"/><path d="m410.495 328.806c-12.105-20.978-30.002-36.917-51.757-46.094-11.2-4.725-22.48-7.121-33.526-7.121v236.18c11.045 0 22.325-2.396 33.525-7.121 21.756-9.177 39.654-25.117 51.758-46.095 11.037-19.125 16.87-41.558 16.87-64.874s-5.834-45.751-16.87-64.875z" fill="#b5b424"/></g></g></g></g></svg>